HIERARCHY
ROOT Hips
{
	OFFSET 0.000000 100.481300 0.000000
	CHANNELS 6 Xposition Yposition Zposition Xrotation Yrotation Zrotation 
	JOINT Spine
	{
		OFFSET -0.279200 12.230698 -2.892100
		CHANNELS 3 Xrotation Yrotation Zrotation
		JOINT Spine1
		{
			OFFSET -0.232667 10.192268 -1.242267
			CHANNELS 3 Xrotation Yrotation Zrotation
			JOINT Spine1_split
			{
				OFFSET -0.232667 10.192268 -1.242267
				CHANNELS 3 Xrotation Yrotation Zrotation
				JOINT Spine2
				{
					OFFSET -0.232667 10.192268 -1.242267
					CHANNELS 3 Xrotation Yrotation Zrotation
					JOINT Neck
					{
						OFFSET -0.418800 17.814194 8.416900
						CHANNELS 3 Xrotation Yrotation Zrotation
						JOINT Head
						{
							OFFSET 0.000000 7.031097 3.806800
							CHANNELS 3 Xrotation Yrotation Zrotation
							JOINT HeadTop_End
							{
								OFFSET 0.000000 24.646606 12.978600
								CHANNELS 3 Xrotation Yrotation Zrotation
								End Site
								{
									OFFSET 0.000000 0.000000 0.000000
								}
							}
						}
					}
					JOINT LeftShoulder
					{
						OFFSET 8.476499 7.247704 -3.868750
						CHANNELS 3 Xrotation Yrotation Zrotation
						JOINT LeftShoulder_split
						{
							OFFSET 8.476499 7.247704 -3.868750
							CHANNELS 3 Xrotation Yrotation Zrotation
							JOINT LeftArm
							{
								OFFSET 9.308998 -2.777710 0.208600
								CHANNELS 3 Xrotation Yrotation Zrotation
								JOINT LeftForeArm
								{
									OFFSET 29.972298 0.000000 0.000000
									CHANNELS 3 Xrotation Yrotation Zrotation
									JOINT LeftHand
									{
										OFFSET 26.026505 0.000000 0.000000
										CHANNELS 3 Xrotation Yrotation Zrotation
										JOINT LeftHandThumb1
										{
											OFFSET 12.240501 -7.147949 9.207150
											CHANNELS 3 Xrotation Yrotation Zrotation
											JOINT LeftHandThumb2
											{
												OFFSET 4.138618 -2.389435 2.389433
												CHANNELS 3 Xrotation Yrotation Zrotation
												JOINT LeftHandThumb3
												{
													OFFSET 2.726913 -1.574387 1.574386
													CHANNELS 3 Xrotation Yrotation Zrotation
													JOINT LeftHandThumb4
													{
														OFFSET 3.941010 -2.275345 2.275342
														CHANNELS 3 Xrotation Yrotation Zrotation
														End Site
														{
															OFFSET 0.000000 0.000000 0.000000
														}
													}
												}
											}
										}
										JOINT LeftHandIndex1
										{
											OFFSET 24.424698 -1.985611 5.953459
											CHANNELS 3 Xrotation Yrotation Zrotation
											JOINT LeftHandIndex2
											{
												OFFSET 6.426697 0.000000 0.000000
												CHANNELS 3 Xrotation Yrotation Zrotation
												JOINT LeftHandIndex3
												{
													OFFSET 5.337898 0.000000 0.000000
													CHANNELS 3 Xrotation Yrotation Zrotation
													JOINT LeftHandIndex4
													{
														OFFSET 4.409401 0.000000 0.000000
														CHANNELS 3 Xrotation Yrotation Zrotation
														End Site
														{
															OFFSET 0.000000 0.000000 0.000000
														}
													}
												}
											}
										}
										JOINT LeftHandMiddle1
										{
											OFFSET 23.810104 0.000000 0.000000
											CHANNELS 3 Xrotation Yrotation Zrotation
											JOINT LeftHandMiddle2
											{
												OFFSET 7.176498 0.000000 0.000000
												CHANNELS 3 Xrotation Yrotation Zrotation
												JOINT LeftHandMiddle3
												{
													OFFSET 6.774902 0.000000 0.000000
													CHANNELS 3 Xrotation Yrotation Zrotation
													JOINT LeftHandMiddle4
													{
														OFFSET 5.403328 0.000000 0.000000
														CHANNELS 3 Xrotation Yrotation Zrotation
														End Site
														{
															OFFSET 0.000000 0.000000 0.000000
														}
													}
												}
											}
										}
										JOINT LeftHandRing1
										{
											OFFSET 22.908401 -0.839279 -6.020567
											CHANNELS 3 Xrotation Yrotation Zrotation
											JOINT LeftHandRing2
											{
												OFFSET 6.337502 0.000000 0.000000
												CHANNELS 3 Xrotation Yrotation Zrotation
												JOINT LeftHandRing3
												{
													OFFSET 5.779297 0.000000 0.000000
													CHANNELS 3 Xrotation Yrotation Zrotation
													JOINT LeftHandRing4
													{
														OFFSET 4.965698 0.000000 0.000000
														CHANNELS 3 Xrotation Yrotation Zrotation
														End Site
														{
															OFFSET 0.000000 0.000000 0.000000
														}
													}
												}
											}
										}
										JOINT LeftHandPinky1
										{
											OFFSET 20.037003 -1.530319 -10.950146
											CHANNELS 3 Xrotation Yrotation Zrotation
											JOINT LeftHandPinky2
											{
												OFFSET 5.254700 0.000000 0.000000
												CHANNELS 3 Xrotation Yrotation Zrotation
												JOINT LeftHandPinky3
												{
													OFFSET 4.810204 0.000000 0.000000
													CHANNELS 3 Xrotation Yrotation Zrotation
													JOINT LeftHandPinky4
													{
														OFFSET 3.647202 0.000000 0.000000
														CHANNELS 3 Xrotation Yrotation Zrotation
														End Site
														{
															OFFSET 0.000000 0.000000 0.000000
														}
													}
												}
											}
										}
									}
								}
							}
						}
					}
					JOINT RightShoulder
					{
						OFFSET -7.570500 7.247704 -3.868750
						CHANNELS 3 Xrotation Yrotation Zrotation
						JOINT RightShoulder_split
						{
							OFFSET -7.570500 7.247704 -3.868750
							CHANNELS 3 Xrotation Yrotation Zrotation
							JOINT RightArm
							{
								OFFSET -9.308998 -2.777710 0.208500
								CHANNELS 3 Xrotation Yrotation Zrotation
								JOINT RightForeArm
								{
									OFFSET -29.972300 0.000000 0.000000
									CHANNELS 3 Xrotation Yrotation Zrotation
									JOINT RightHand
									{
										OFFSET -26.026505 0.000000 0.000000
										CHANNELS 3 Xrotation Yrotation Zrotation
										JOINT RightHandThumb1
										{
											OFFSET -12.240601 -7.148026 9.207092
											CHANNELS 3 Xrotation Yrotation Zrotation
											JOINT RightHandThumb2
											{
												OFFSET -4.138618 -2.389435 2.389433
												CHANNELS 3 Xrotation Yrotation Zrotation
												JOINT RightHandThumb3
												{
													OFFSET -2.726974 -1.574417 1.574421
													CHANNELS 3 Xrotation Yrotation Zrotation
													JOINT RightHandThumb4
													{
														OFFSET -3.941010 -2.275345 2.275343
														CHANNELS 3 Xrotation Yrotation Zrotation
														End Site
														{
															OFFSET 0.000000 0.000000 0.000000
														}
													}
												}
											}
										}
										JOINT RightHandIndex1
										{
											OFFSET -24.424698 -1.985657 5.953444
											CHANNELS 3 Xrotation Yrotation Zrotation
											JOINT RightHandIndex2
											{
												OFFSET -6.426697 0.000000 0.000000
												CHANNELS 3 Xrotation Yrotation Zrotation
												JOINT RightHandIndex3
												{
													OFFSET -5.337898 0.000000 0.000000
													CHANNELS 3 Xrotation Yrotation Zrotation
													JOINT RightHandIndex4
													{
														OFFSET -4.409401 0.000000 0.000000
														CHANNELS 3 Xrotation Yrotation Zrotation
														End Site
														{
															OFFSET 0.000000 0.000000 0.000000
														}
													}
												}
											}
										}
										JOINT RightHandMiddle1
										{
											OFFSET -23.810097 0.000000 0.000000
											CHANNELS 3 Xrotation Yrotation Zrotation
											JOINT RightHandMiddle2
											{
												OFFSET -7.176498 0.000000 0.000000
												CHANNELS 3 Xrotation Yrotation Zrotation
												JOINT RightHandMiddle3
												{
													OFFSET -6.774902 0.000000 0.000000
													CHANNELS 3 Xrotation Yrotation Zrotation
													JOINT RightHandMiddle4
													{
														OFFSET -5.403328 0.000000 0.000000
														CHANNELS 3 Xrotation Yrotation Zrotation
														End Site
														{
															OFFSET 0.000000 0.000000 0.000000
														}
													}
												}
											}
										}
										JOINT RightHandRing1
										{
											OFFSET -22.908302 -0.839325 -6.020576
											CHANNELS 3 Xrotation Yrotation Zrotation
											JOINT RightHandRing2
											{
												OFFSET -6.337502 0.000000 0.000000
												CHANNELS 3 Xrotation Yrotation Zrotation
												JOINT RightHandRing3
												{
													OFFSET -5.779297 0.000000 0.000000
													CHANNELS 3 Xrotation Yrotation Zrotation
													JOINT RightHandRing4
													{
														OFFSET -4.965698 0.000000 0.000000
														CHANNELS 3 Xrotation Yrotation Zrotation
														End Site
														{
															OFFSET 0.000000 0.000000 0.000000
														}
													}
												}
											}
										}
										JOINT RightHandPinky1
										{
											OFFSET -20.037003 -1.530334 -10.950259
											CHANNELS 3 Xrotation Yrotation Zrotation
											JOINT RightHandPinky2
											{
												OFFSET -5.254700 0.000000 0.000000
												CHANNELS 3 Xrotation Yrotation Zrotation
												JOINT RightHandPinky3
												{
													OFFSET -4.810204 0.000000 0.000000
													CHANNELS 3 Xrotation Yrotation Zrotation
													JOINT RightHandPinky4
													{
														OFFSET -3.647202 0.000000 0.000000
														CHANNELS 3 Xrotation Yrotation Zrotation
														End Site
														{
															OFFSET 0.000000 0.000000 0.000000
														}
													}
												}
											}
										}
									}
								}
							}
						}
					}
				}
			}
		}
	}
	JOINT LeftUpLeg
	{
		OFFSET 15.427100 -6.655098 0.678600
		CHANNELS 3 Xrotation Yrotation Zrotation
		JOINT LeftLeg
		{
			OFFSET 4.081073 -39.591068 13.024000
			CHANNELS 3 Xrotation Yrotation Zrotation
			JOINT LeftFoot
			{
				OFFSET -4.081074 -37.707932 -15.979700
				CHANNELS 3 Xrotation Yrotation Zrotation
				JOINT LeftToeBase
				{
					OFFSET 5.346399 -15.068900 20.645000
					CHANNELS 3 Xrotation Yrotation Zrotation
					JOINT LeftToe_End
					{
						OFFSET 2.754700 0.931300 11.300900
						CHANNELS 3 Xrotation Yrotation Zrotation
						End Site
						{
							OFFSET 0.000000 0.000000 0.000000
						}
					}
				}
			}
		}
	}
	JOINT RightUpLeg
	{
		OFFSET -15.569500 -6.655098 0.678600
		CHANNELS 3 Xrotation Yrotation Zrotation
		JOINT RightLeg
		{
			OFFSET -4.081825 -39.591045 13.023800
			CHANNELS 3 Xrotation Yrotation Zrotation
			JOINT RightFoot
			{
				OFFSET 4.081824 -37.707954 -15.979600
				CHANNELS 3 Xrotation Yrotation Zrotation
				JOINT RightToeBase
				{
					OFFSET -5.346400 -15.068900 20.645000
					CHANNELS 3 Xrotation Yrotation Zrotation
					JOINT RightToe_End
					{
						OFFSET -2.754700 0.931300 11.300900
						CHANNELS 3 Xrotation Yrotation Zrotation
						End Site
						{
							OFFSET 0.000000 0.000000 0.000000
						}
					}
				}
			}
		}
	}
}
MOTION
Frames: 5
Frame Time: 0.016667
0.417959 90.091652 -1.142565 1.363774 -27.090694 1.458478 3.649748 -2.002081 0.388992 1.363086 -0.820711 0.173835 0.000000 0.000000 0.000000 1.366611 -0.813807 0.178820 -1.889905 4.550424 2.461103 17.045041 24.869849 -12.698044 -0.000001 0.000000 0.000000 -0.311616 3.473782 4.919202 0.000000 0.000000 0.000000 -51.541803 -1.692558 -52.291911 -0.000087 -84.594488 -0.000110 -12.268091 -17.441595 -7.415577 27.590978 19.106259 -21.055327 27.859549 42.153018 14.703709 8.091825 17.848654 9.739460 0.000000 -0.000002 0.000000 6.438754 6.867027 -86.304624 7.312873 6.867697 -93.605304 2.157737 5.009657 -46.582959 -0.000001 0.000000 -0.000000 6.436820 6.866910 -86.288409 7.314809 6.867588 -93.621519 2.157738 5.009660 -46.582945 -0.000001 0.000001 -0.000001 6.438755 6.867027 -86.304617 7.312876 6.867701 -93.605304 2.157737 5.009654 -46.582962 -0.000001 -0.000001 0.000001 10.514953 7.128920 -86.291032 7.312040 2.781439 -93.595305 2.157739 5.009657 -46.582962 -0.000001 0.000000 0.000000 -1.129697 -10.661998 8.143388 0.000000 0.000000 0.000000 -61.066946 65.570424 77.632552 0.000297 81.745876 -0.000281 -15.442860 16.436763 -32.999601 35.509600 -4.573165 10.809902 66.380819 -29.907957 29.548727 25.917428 -18.540873 10.281096 -0.000001 -0.000004 0.000004 5.945855 -6.875910 81.685354 8.620194 -6.745018 103.956572 2.650636 -5.464864 51.723814 -0.000000 0.000000 -0.000000 5.945855 -6.875910 81.685354 8.620195 -6.745016 103.956565 2.650639 -5.464868 51.723814 0.000001 -0.000003 0.000002 5.945860 -6.875900 81.685340 8.620185 -6.745011 103.956579 2.650641 -5.464863 51.723814 0.000001 -0.000002 0.000001 5.945855 -6.875910 81.685354 8.620202 -6.745027 103.956565 2.650632 -5.464853 51.723810 -0.000001 -0.000000 0.000000 -27.372950 25.553165 15.815349 27.625284 7.272158 9.834640 -2.761137 1.888515 -14.527578 -0.000072 0.000003 0.000004 0.000000 -0.000000 0.000000 -17.596628 -17.017114 -11.096455 30.096030 -0.357416 -6.895950 -14.368505 -2.399403 11.929747 -0.000024 0.000015 0.000003 -0.000000 -0.000002 -0.000000 
0.419677 90.093956 -1.144665 1.364136 -27.085148 1.451346 3.644951 -2.001973 0.390124 1.363088 -0.820715 0.173820 0.000000 0.000000 0.000000 1.366616 -0.813801 0.178804 -1.882821 4.550446 2.481605 17.052710 24.883300 -12.703481 0.000001 -0.000000 0.000000 -0.308280 3.435129 4.918956 0.000000 0.000000 0.000000 -51.567518 -1.700396 -52.299346 -0.000940 -84.588423 -0.000954 -12.294670 -17.380813 -7.430944 27.590981 19.106261 -21.055315 27.859551 42.153018 14.703700 8.091823 17.848654 9.739461 0.000000 0.000002 0.000003 6.438755 6.867028 -86.304617 7.312874 6.867698 -93.605304 2.157735 5.009656 -46.582962 0.000001 -0.000000 0.000000 6.436823 6.866907 -86.288409 7.314804 6.867583 -93.621505 2.157738 5.009660 -46.582945 0.000000 -0.000000 -0.000000 6.438755 6.867028 -86.304624 7.312879 6.867704 -93.605304 2.157736 5.009650 -46.582966 0.000000 -0.000000 -0.000001 10.514954 7.128918 -86.291032 7.312042 2.781440 -93.595298 2.157739 5.009655 -46.582956 0.000001 -0.000000 -0.000000 -1.127378 -10.685148 8.203402 0.000000 0.000000 0.000000 -61.032740 65.576865 77.592629 0.000563 81.763293 -0.000565 -15.337694 16.323411 -32.921751 35.509600 -4.573164 10.809903 66.380819 -29.907957 29.548720 25.917426 -18.540875 10.281096 0.000000 -0.000002 0.000002 5.945856 -6.875910 81.685354 8.620190 -6.745013 103.956572 2.650640 -5.464858 51.723807 0.000002 0.000001 -0.000001 5.945856 -6.875910 81.685354 8.620196 -6.745015 103.956565 2.650634 -5.464860 51.723814 -0.000000 0.000001 -0.000000 5.945859 -6.875901 81.685347 8.620183 -6.745016 103.956579 2.650638 -5.464861 51.723814 0.000003 0.000000 -0.000001 5.945856 -6.875910 81.685354 8.620202 -6.745021 103.956572 2.650636 -5.464850 51.723807 0.000001 0.000001 -0.000000 -27.397683 25.592251 15.829860 27.625851 7.230453 9.838353 -2.759378 1.883832 -14.507692 -0.000072 0.000003 0.000004 -0.000000 0.000000 -0.000000 -17.587814 -17.014018 -11.082059 30.086717 -0.377376 -6.905944 -14.363229 -2.402007 11.941361 -0.000024 0.000014 0.000003 -0.000000 0.000000 -0.000000 
0.419303 90.095642 -1.145815 1.364497 -27.078864 1.444545 3.638370 -2.001883 0.390893 1.361890 -0.820749 0.173847 0.000000 0.000000 0.000000 1.365415 -0.813846 0.178831 -1.873933 4.545142 2.494241 17.054410 24.886838 -12.705632 -0.000001 0.000000 -0.000000 -0.307939 3.431326 4.918805 0.000000 0.000000 0.000000 -51.600836 -1.706254 -52.314826 0.003254 -84.572434 0.003243 -12.351134 -17.378785 -7.461662 27.590986 19.106256 -21.055322 27.859549 42.153021 14.703702 8.091826 17.848655 9.739457 0.000000 0.000000 0.000003 6.438754 6.867027 -86.304617 7.312874 6.867698 -93.605304 2.157736 5.009656 -46.582962 0.000002 -0.000000 0.000000 6.436821 6.866910 -86.288409 7.314805 6.867584 -93.621505 2.157736 5.009662 -46.582945 -0.000001 0.000001 0.000000 6.438755 6.867027 -86.304617 7.312877 6.867702 -93.605304 2.157737 5.009656 -46.582962 0.000001 0.000000 0.000000 10.514954 7.128919 -86.291032 7.312038 2.781440 -93.595305 2.157738 5.009655 -46.582956 0.000000 0.000000 0.000000 -1.125351 -10.703790 8.253316 0.000000 0.000000 0.000000 -60.998036 65.595894 77.553622 0.000352 81.773190 -0.000339 -15.257907 16.188479 -32.872092 35.509597 -4.573165 10.809903 66.380812 -29.907961 29.548727 25.917426 -18.540866 10.281094 -0.000001 -0.000002 0.000004 5.945854 -6.875911 81.685347 8.620191 -6.745017 103.956572 2.650639 -5.464861 51.723803 -0.000002 0.000000 0.000001 5.945854 -6.875910 81.685347 8.620194 -6.745016 103.956572 2.650636 -5.464861 51.723810 -0.000002 0.000003 -0.000001 5.945858 -6.875904 81.685340 8.620187 -6.745018 103.956579 2.650637 -5.464860 51.723814 0.000001 0.000000 -0.000001 5.945854 -6.875911 81.685354 8.620202 -6.745025 103.956572 2.650636 -5.464852 51.723814 0.000001 0.000000 -0.000001 -27.417546 25.620060 15.843150 27.626773 7.198093 9.840687 -2.757811 1.880233 -14.493163 -0.000072 0.000003 0.000004 -0.000000 0.000000 -0.000000 -17.576054 -17.005788 -11.071218 30.078405 -0.401385 -6.906587 -14.360669 -2.404885 11.950288 -0.000024 0.000014 0.000003 -0.000000 0.000000 -0.000000 
0.419131 90.097038 -1.147227 1.364869 -27.072969 1.436462 3.631745 -1.998492 0.391828 1.359630 -0.820054 0.173905 0.000000 0.000000 0.000000 1.363164 -0.813137 0.178891 -1.864814 4.541535 2.505155 17.054352 24.890948 -12.708784 -0.000000 -0.000000 -0.000000 -0.306417 3.435006 4.888568 0.000000 0.000000 0.000000 -51.635861 -1.710348 -52.332793 0.000209 -84.553869 0.000250 -12.412332 -17.397689 -7.494349 27.590978 19.106256 -21.055330 27.859549 42.153025 14.703705 8.091827 17.848655 9.739460 0.000000 -0.000002 -0.000002 6.438755 6.867024 -86.304624 7.312875 6.867697 -93.605304 2.157736 5.009656 -46.582956 0.000000 -0.000001 -0.000000 6.436822 6.866906 -86.288409 7.314808 6.867586 -93.621512 2.157737 5.009662 -46.582945 -0.000000 -0.000001 -0.000001 6.438756 6.867024 -86.304624 7.312878 6.867701 -93.605304 2.157736 5.009652 -46.582966 0.000001 0.000000 -0.000000 10.514956 7.128916 -86.291032 7.312039 2.781439 -93.595298 2.157739 5.009657 -46.582956 0.000001 -0.000000 -0.000000 -1.123387 -10.721039 8.300135 0.000000 0.000000 0.000000 -60.963209 65.619840 77.514335 -0.000643 81.780683 0.000658 -15.193563 16.057426 -32.834475 35.509600 -4.573163 10.809901 66.380812 -29.907961 29.548723 25.917429 -18.540871 10.281093 -0.000001 -0.000003 0.000002 5.945853 -6.875908 81.685354 8.620185 -6.745021 103.956572 2.650642 -5.464861 51.723807 0.000001 0.000000 -0.000001 5.945853 -6.875907 81.685354 8.620191 -6.745019 103.956572 2.650644 -5.464866 51.723814 -0.000000 0.000001 -0.000001 5.945855 -6.875901 81.685340 8.620187 -6.745016 103.956586 2.650641 -5.464863 51.723814 -0.000000 0.000000 -0.000001 5.945853 -6.875908 81.685354 8.620196 -6.745025 103.956572 2.650634 -5.464851 51.723814 -0.000002 -0.000004 0.000000 -27.444248 25.659685 15.861200 27.629649 7.153613 9.843664 -2.757208 1.875637 -14.473734 -0.000072 0.000002 0.000004 0.000000 -0.000001 -0.000000 -17.561760 -16.989827 -11.060690 30.068866 -0.428230 -6.900815 -14.357710 -2.407117 11.958107 -0.000024 0.000015 0.000003 -0.000000 0.000000 0.000000 
0.418993 90.097763 -1.149089 1.365251 -27.067153 1.430817 3.624873 -1.996832 0.392622 1.357168 -0.820010 0.174018 0.000000 0.000000 0.000000 1.360709 -0.813094 0.179006 -1.855649 4.538362 2.513961 17.052539 24.893850 -12.712143 -0.000001 -0.000000 0.000000 -0.305924 3.446132 4.864929 0.000000 0.000000 0.000000 -51.651472 -1.736581 -52.386701 -0.000252 -84.533884 -0.000253 -12.479405 -17.438725 -7.531176 27.590978 19.106257 -21.055329 27.859544 42.153025 14.703702 8.091826 17.848654 9.739456 0.000001 -0.000003 -0.000000 6.438754 6.867028 -86.304624 7.312876 6.867698 -93.605311 2.157735 5.009656 -46.582959 0.000001 -0.000001 0.000000 6.436821 6.866912 -86.288409 7.314804 6.867586 -93.621512 2.157737 5.009662 -46.582945 -0.000001 -0.000000 0.000000 6.438754 6.867028 -86.304624 7.312877 6.867701 -93.605304 2.157736 5.009653 -46.582966 0.000001 -0.000001 0.000001 10.514954 7.128919 -86.291032 7.312035 2.781441 -93.595305 2.157740 5.009659 -46.582959 0.000002 0.000001 -0.000000 -1.121533 -10.736598 8.342947 0.000000 0.000000 0.000000 -60.928429 65.648479 77.475287 0.000229 81.786140 -0.000223 -15.145967 15.930503 -32.810241 35.509600 -4.573166 10.809906 66.380819 -29.907964 29.548720 25.917428 -18.540870 10.281094 -0.000000 -0.000003 0.000002 5.945854 -6.875913 81.685347 8.620189 -6.745015 103.956572 2.650636 -5.464863 51.723810 -0.000001 -0.000000 0.000000 5.945856 -6.875912 81.685347 8.620197 -6.745018 103.956572 2.650635 -5.464860 51.723814 -0.000001 -0.000005 0.000002 5.945857 -6.875904 81.685340 8.620191 -6.745018 103.956579 2.650636 -5.464863 51.723814 -0.000001 0.000000 -0.000000 5.945856 -6.875913 81.685347 8.620202 -6.745023 103.956572 2.650636 -5.464853 51.723817 -0.000000 -0.000000 -0.000002 -27.470462 25.700848 15.876864 27.632555 7.108130 9.846678 -2.756402 1.871024 -14.453818 -0.000072 0.000003 0.000004 -0.000000 0.000001 -0.000000 -17.549058 -16.968288 -11.055494 30.062108 -0.455084 -6.888962 -14.355978 -2.409355 11.963799 -0.000024 0.000014 0.000003 -0.000000 0.000000 -0.000000 
